<?xml version="1.0" encoding="iso-8859-1"?>
<!-- Generator: Adobe Illustrator 19.0.0, SVG Export Plug-In . SVG Version: 6.00 Build 0)  -->
<svg xmlns="http://www.w3.org/2000/svg" xmlns:xlink="http://www.w3.org/1999/xlink" version="1.1" id="Layer_1" x="0px" y="0px" viewBox="0 0 512.005 512.005" style="enable-background:new 0 0 512.005 512.005;" xml:space="preserve" width="512px" height="512px">
<g>
	<g>
		<path d="M140.801,264.536c-21.208,0-38.4,17.192-38.4,38.4s17.192,38.4,38.4,38.4c21.208,0,38.4-17.192,38.4-38.4    C179.178,281.738,161.999,264.559,140.801,264.536z M140.801,324.269c-11.782,0-21.333-9.551-21.333-21.333    s9.551-21.333,21.333-21.333c11.782,0,21.333,9.551,21.333,21.333C162.122,314.713,152.578,324.257,140.801,324.269z" fill="#FFFFFF"/>
	</g>
</g>
<g>
	<g>
		<path d="M497.159,484.665c-6.561-6.593-16.165-9.141-25.131-6.667l8.423-9.967c6.281-7.094,7.733-17.247,3.692-25.817    c-4.718-9.76-14.722-15.845-25.558-15.546h-194.05v-34.133h174.008c14.137,0.002,25.599-11.456,25.601-25.593    c0.001-4.8-1.348-9.503-3.893-13.573l-55.522-88.833h11.355c7.044,0.097,13.867-2.457,19.117-7.154    c5.364-4.636,8.473-11.356,8.533-18.446c0.001-2.918-0.536-5.81-1.583-8.533h45.275c6.613,0.024,12.929-2.745,17.392-7.625    c4.652-4.822,7.23-11.275,7.183-17.975c0.261-13.847-10.729-25.296-24.575-25.6h-104.45c-6.613-0.024-12.929,2.745-17.392,7.625    c-2.034,2.133-3.678,4.606-4.856,7.307L264.534,40.229V8.536c-0.014-1.042-0.222-2.072-0.612-3.038    c-0.137-0.306-0.292-0.603-0.466-0.89c-0.306-0.599-0.684-1.16-1.124-1.669c-0.247-0.274-0.511-0.532-0.792-0.772    c-0.493-0.424-1.035-0.789-1.613-1.087c-0.322-0.185-0.656-0.347-1-0.487c-0.169-0.062-0.303-0.181-0.477-0.233    c-0.613-0.151-1.242-0.232-1.873-0.242c-0.2-0.014-0.373-0.117-0.577-0.117l-0.127,0.026c-1.026,0.019-2.04,0.224-2.993,0.604    c-0.271,0.131-0.535,0.276-0.79,0.436c-0.631,0.317-1.219,0.714-1.749,1.179c-0.274,0.26-0.53,0.538-0.767,0.832    c-0.249,0.238-0.483,0.492-0.7,0.76l-11.858,17.992c-4.078-3.057-9.029-4.726-14.125-4.763h-104.45    c-6.613-0.024-12.929,2.745-17.392,7.625c-4.652,4.822-7.23,11.275-7.183,17.975c-0.005,2.902,0.468,5.785,1.4,8.533H27.651    c-5.018,0.018-9.952,1.284-14.358,3.683c-1.698,0.996-3.292,2.158-4.758,3.471c-5.364,4.636-8.473,11.356-8.533,18.446    c0.602,14.688,12.959,26.129,27.65,25.6h123.9c7.044,0.097,13.867-2.457,19.117-7.154c5.364-4.636,8.472-11.357,8.533-18.446    c0.001-2.918-0.536-5.81-1.583-8.533h28.794L18.851,352.844c-7.781,11.806-4.519,27.685,7.287,35.466    c4.182,2.756,9.08,4.225,14.088,4.226h186.258c0.766-0.008,1.528-0.12,2.265-0.333c0.538,0.168,1.091,0.28,1.652,0.333h17.067    v34.133H44.884c-10.836-0.299-20.84,5.786-25.558,15.546c-4.041,8.559-2.595,18.702,3.675,25.792l7.817,9.285    c-6.032,0.453-11.698,3.067-15.958,7.361L2.4,497.536c-3.277,3.387-3.187,8.79,0.2,12.067c3.387,3.277,8.79,3.187,12.067-0.2    l12.475-12.896c3.317-3.394,8.757-3.457,12.152-0.14c0.102,0.1,0.202,0.202,0.299,0.307c4.371,4.431,10.226,7.089,16.439,7.461    c0.541,0.174,1.097,0.295,1.661,0.359c0.632-0.039,1.258-0.147,1.866-0.323c6.454-0.314,12.552-3.051,17.076-7.664    c3.317-3.394,8.757-3.457,12.152-0.14c0.102,0.1,0.202,0.202,0.298,0.307c10.163,10.183,26.658,10.199,36.841,0.036    c0.067-0.067,0.134-0.135,0.201-0.203c3.321-3.396,8.766-3.457,12.162-0.137c0.095,0.093,0.189,0.189,0.28,0.286    c5.722,6.071,14.1,8.88,22.325,7.487c5.626-0.83,10.812-3.518,14.733-7.637c3.312-3.392,8.746-3.457,12.138-0.145    c0.104,0.101,0.205,0.205,0.304,0.312c10.169,10.186,26.67,10.199,36.856,0.03c0.065-0.065,0.13-0.13,0.195-0.196    c3.312-3.392,8.746-3.457,12.138-0.145c0.104,0.101,0.205,0.205,0.304,0.312c10.169,10.186,26.67,10.199,36.856,0.03    c0.065-0.065,0.13-0.13,0.194-0.196c3.317-3.394,8.757-3.457,12.152-0.14c0.102,0.1,0.202,0.202,0.298,0.307    c10.164,10.183,26.658,10.199,36.841,0.036c0.067-0.067,0.134-0.135,0.201-0.202c3.308-3.396,8.743-3.467,12.139-0.158    c0.115,0.112,0.227,0.227,0.336,0.346c3.811,3.977,8.83,6.581,14.275,7.408c8.376,1.458,16.923-1.397,22.741-7.596    c3.309-3.394,8.743-3.464,12.137-0.155c0.107,0.104,0.212,0.212,0.313,0.322c10.169,10.186,26.67,10.199,36.856,0.03    c0.065-0.065,0.13-0.13,0.194-0.196c3.312-3.392,8.746-3.457,12.138-0.145c0.104,0.101,0.205,0.205,0.304,0.312    c2.455,2.528,5.422,4.501,8.703,5.786c0.159,0.054,0.31,0.096,0.472,0.14c9.678,3.67,20.611,1.28,27.875-6.093    c3.378-3.391,8.865-3.401,12.256-0.024c0.012,0.012,0.024,0.024,0.036,0.036l12.459,12.883c3.277,3.387,8.679,3.477,12.067,0.2    c3.387-3.277,3.477-8.679,0.2-12.067L497.159,484.665z M378.076,198.452c1.242-1.401,3.028-2.196,4.9-2.183h104.45    c4.393,0.358,7.712,4.131,7.508,8.533c0.013,2.38-0.926,4.666-2.608,6.35c-1.242,1.401-3.028,2.196-4.9,2.183h-71.342    c-4.713,0-8.533,3.82-8.533,8.533s3.82,8.533,8.533,8.533c5.238-0.43,9.893,3.323,10.583,8.533c-0.068,2.257-1.129,4.37-2.9,5.771    c-2.122,1.856-4.866,2.842-7.683,2.763h-22.022l-10.714-17.142c4.69-0.186,8.342-4.138,8.156-8.829    c-0.181-4.574-3.952-8.183-8.529-8.163c-4.393-0.358-7.712-4.131-7.508-8.533C375.454,202.422,376.393,200.136,378.076,198.452z     M298.667,127.028l147.117,235.382c1.677,2.623,1.76,5.959,0.217,8.662v0c-1.475,2.738-4.348,4.431-7.458,4.396H298.667V127.028z     M264.534,72.416l17.067,27.307v275.746h-17.067V72.416z M151.551,51.202c-4.713,0-8.533,3.82-8.533,8.533s3.82,8.533,8.533,8.533    c5.238-0.43,9.893,3.323,10.583,8.533c-0.068,2.257-1.129,4.37-2.9,5.771c-2.122,1.856-4.866,2.842-7.683,2.762h-123.9    c-5.238,0.43-9.893-3.323-10.583-8.533c0.063-2.24,1.109-4.338,2.859-5.737c0.544-0.485,1.127-0.925,1.742-1.317    c1.844-0.972,3.898-1.48,5.983-1.479h90.792c4.713,0,8.533-3.82,8.533-8.533s-3.82-8.533-8.533-8.533    c-4.393-0.358-7.712-4.131-7.508-8.533c-0.013-2.38,0.926-4.666,2.608-6.35c1.242-1.401,3.028-2.196,4.9-2.183h104.45    c1.761,0.057,3.434,0.781,4.681,2.026l-9.915,15.041H151.551z M40.226,375.469c-4.711,0.003-8.533-3.814-8.536-8.525    c-0.001-1.672,0.489-3.308,1.411-4.704L215.768,85.086c-30.675,94.306-31.06,195.848-1.1,290.383H40.226z M232.699,375.469    c-15.338-46.268-23.156-94.697-23.156-143.442c-0.11-62.512,12.807-124.361,37.925-181.605v325.047H232.699z M467.426,457.002    l-21.877,25.889c-10.406-8.444-25.524-7.604-34.931,1.94c-3.301,3.392-8.726,3.466-12.118,0.166    c-0.111-0.108-0.219-0.219-0.323-0.332c-10.156-10.183-26.644-10.206-36.828-0.05c-0.077,0.077-0.154,0.155-0.231,0.233    c-1.944,2.029-4.781,2.936-7.542,2.412c-1.877-0.294-3.602-1.208-4.9-2.596c-10.158-10.183-26.647-10.204-36.831-0.046    c-0.071,0.071-0.141,0.142-0.211,0.213c-3.306,3.394-8.737,3.466-12.132,0.161c-0.109-0.106-0.215-0.215-0.319-0.327    c-10.158-10.183-26.647-10.204-36.83-0.047c-0.071,0.071-0.141,0.142-0.211,0.213c-3.309,3.394-8.743,3.464-12.137,0.155    c-0.107-0.104-0.212-0.212-0.313-0.322c-10.163-10.186-26.659-10.204-36.845-0.041c-0.069,0.069-0.137,0.138-0.205,0.207    c-3.301,3.392-8.726,3.466-12.118,0.166c-0.111-0.108-0.219-0.219-0.323-0.332c-10.173-10.184-26.675-10.194-36.86-0.021    c-0.055,0.055-0.111,0.111-0.165,0.167c-1.34,1.372-3.105,2.25-5.008,2.492c-2.772,0.44-5.579-0.553-7.458-2.638    c-10.169-10.186-26.67-10.199-36.856-0.03c-0.065,0.065-0.13,0.13-0.195,0.196c-3.306,3.394-8.738,3.466-12.132,0.16    c-0.109-0.106-0.215-0.215-0.318-0.327c-10.158-10.183-26.647-10.204-36.831-0.046c-0.071,0.071-0.141,0.142-0.211,0.213    c-0.855,0.874-1.891,1.549-3.035,1.978l-25.098-29.82c-1.959-2.029-2.445-5.065-1.217-7.604c1.949-3.702,5.891-5.915,10.067-5.65    h413.7c4.176-0.265,8.117,1.948,10.067,5.65C469.879,451.93,469.39,454.971,467.426,457.002z" fill="#FFFFFF"/>
	</g>
</g>
<g>
</g>
<g>
</g>
<g>
</g>
<g>
</g>
<g>
</g>
<g>
</g>
<g>
</g>
<g>
</g>
<g>
</g>
<g>
</g>
<g>
</g>
<g>
</g>
<g>
</g>
<g>
</g>
<g>
</g>
</svg>
