<?xml version="1.0" encoding="iso-8859-1"?>
<!-- Generator: Adobe Illustrator 19.0.0, SVG Export Plug-In . SVG Version: 6.00 Build 0)  -->
<svg xmlns="http://www.w3.org/2000/svg" xmlns:xlink="http://www.w3.org/1999/xlink" version="1.1" id="Capa_1" x="0px" y="0px" viewBox="0 0 480 480" style="enable-background:new 0 0 480 480;" xml:space="preserve" width="512px" height="512px">
<g>
	<g>
		<path d="M479.968,471.272L467.16,330.456c-2.224-24.552-19.92-44.52-44.024-49.672l-72.32-15.504l-4.056-20.256    c-2.456-12.28-14.176-20.672-26.504-19.12l-29.096,3.64l-1.592-19.104C321.96,191.448,344,154.448,344,112    c0-8.584-1.016-17.296-3.008-26c0.408-0.344,0.904-0.568,1.248-0.992c1.512-1.896,2.096-4.376,1.568-6.744L330.592,18.8    C328.136,7.728,318.496,0,307.168,0H172.832c-11.336,0-20.968,7.728-23.432,18.8l-13.216,59.472    c-0.52,2.368,0.056,4.84,1.568,6.744c0.344,0.424,0.832,0.648,1.248,0.992c-1.984,8.696-3,17.408-3,25.992    c0,42.448,22.04,79.448,54.44,98.44l-1.592,19.104l-29.096-3.64c-12.312-1.512-24.064,6.84-26.504,19.112l-4.056,20.264    l-72.32,15.496c-24.112,5.168-41.808,25.144-44.032,49.688L0.032,471.272c-0.2,2.24,0.544,4.464,2.064,6.128    C3.608,479.056,5.752,480,8,480h464c2.248,0,4.392-0.944,5.904-2.6C479.416,475.736,480.168,473.52,479.968,471.272z     M165.032,22.264c0.808-3.688,4.024-6.264,7.8-6.264H307.16c3.784,0,6.992,2.576,7.808,6.264L326.024,72H153.976L165.032,22.264z     M152,112c0-7.888,0.992-15.944,2.96-24h170.08c1.968,8.056,2.96,16.112,2.96,24c0,38.4-20.816,71.504-50.744,86.848    c-23.712,12.12-50.8,12.12-74.512,0C172.816,183.504,152,150.4,152,112z M232,464H104.64l7.336-95.384l-15.952-1.232L88.592,464    H16.76l12.016-132.088C30.36,314.376,43,300.104,60.232,296.408l75.96-16.272l46.504,7.752l2.624-15.784l-39.848-6.64l3.464-17.32    c0.816-4.088,4.744-6.848,8.832-6.368l37.36,4.672c0,0,0,0,0.008,0l5.504,0.688c2.904,16.048,15.44,28.736,31.36,31.992V464z     M216,240c0-4.032-3.008-7.44-7.008-7.936l-4.256-0.536l1.144-13.792c0.256,0.096,0.52,0.16,0.768,0.256    c1.904,0.696,3.832,1.312,5.784,1.896c1.216,0.36,2.424,0.696,3.648,1.016c1.72,0.44,3.44,0.848,5.192,1.192    c1.568,0.312,3.144,0.544,4.728,0.776c1.52,0.224,3.032,0.472,4.576,0.624c2.448,0.24,4.896,0.352,7.352,0.4    c0.696,0.008,1.376,0.104,2.072,0.104s1.376-0.096,2.072-0.112c2.456-0.056,4.904-0.16,7.352-0.4    c1.544-0.152,3.056-0.4,4.576-0.624c1.576-0.232,3.152-0.464,4.728-0.776c1.752-0.344,3.472-0.752,5.192-1.192    c1.224-0.312,2.44-0.648,3.648-1.016c1.952-0.576,3.88-1.2,5.784-1.896c0.256-0.096,0.52-0.16,0.768-0.256l1.152,13.792    l-4.256,0.536C267.008,232.56,264,235.968,264,240c0,13.232-10.768,24-24,24S216,253.232,216,240z M391.36,464l-7.392-88.664    l-15.936,1.328l7.28,87.336H248V279.128c15.92-3.256,28.456-15.936,31.36-31.992l5.504-0.688c0,0,0,0,0.008,0l37.36-4.672    c4.112-0.496,8.024,2.28,8.832,6.376l3.464,17.312l-39.848,6.64l2.624,15.784l46.504-7.752l75.968,16.28    c17.216,3.688,29.856,17.952,31.448,35.496L463.24,464H391.36z" fill="#FFFFFF"/>
	</g>
</g>
<g>
	<g>
		<rect x="264" y="304" width="16" height="16" fill="#FFFFFF"/>
	</g>
</g>
<g>
	<g>
		<rect x="264" y="344" width="16" height="16" fill="#FFFFFF"/>
	</g>
</g>
<g>
	<g>
		<rect x="264" y="384" width="16" height="16" fill="#FFFFFF"/>
	</g>
</g>
<g>
	<g>
		<rect x="264" y="424" width="16" height="16" fill="#FFFFFF"/>
	</g>
</g>
<g>
	<g>
		<rect x="200" y="304" width="16" height="16" fill="#FFFFFF"/>
	</g>
</g>
<g>
	<g>
		<rect x="200" y="344" width="16" height="16" fill="#FFFFFF"/>
	</g>
</g>
<g>
	<g>
		<rect x="200" y="384" width="16" height="16" fill="#FFFFFF"/>
	</g>
</g>
<g>
	<g>
		<rect x="200" y="424" width="16" height="16" fill="#FFFFFF"/>
	</g>
</g>
<g>
</g>
<g>
</g>
<g>
</g>
<g>
</g>
<g>
</g>
<g>
</g>
<g>
</g>
<g>
</g>
<g>
</g>
<g>
</g>
<g>
</g>
<g>
</g>
<g>
</g>
<g>
</g>
<g>
</g>
</svg>
