<?xml version="1.0" encoding="iso-8859-1"?>
<!-- Generator: Adobe Illustrator 19.0.0, SVG Export Plug-In . SVG Version: 6.00 Build 0)  -->
<svg xmlns="http://www.w3.org/2000/svg" xmlns:xlink="http://www.w3.org/1999/xlink" version="1.1" id="Capa_1" x="0px" y="0px" viewBox="0 0 480 480" style="enable-background:new 0 0 480 480;" xml:space="preserve" width="512px" height="512px">
<g>
	<g>
		<path d="M466.504,21.64L439,5.144c-2.296-1.376-5.128-1.504-7.544-0.368l-56.672,26.84l-64.88-26.488    c-1.536-0.616-3.24-0.768-4.84-0.384l-32,7.472c-3.12,0.728-5.504,3.24-6.064,6.4c-0.552,3.152,0.824,6.328,3.496,8.088    l48.144,31.512l-35.664,16.896l-27.808-13.928c-5.744-2.864-12.6-2.048-17.496,2.096c-4.896,4.144-6.84,10.784-4.96,16.904    l9.968,32.496c2.088,6.768,8.232,11.312,15.304,11.312h24.904c0.96,0,1.912-0.168,2.808-0.504l51.8-19.432l-6.56,59.056    c-0.328,2.912,0.968,5.768,3.376,7.448c1.368,0.944,2.968,1.432,4.576,1.432c1.224,0,2.448-0.28,3.576-0.84l32-16    c1.896-0.952,3.336-2.616,4.008-4.624l22.952-68.856l64-32c5.224-2.608,8.608-7.848,8.832-13.688S471.512,24.648,466.504,21.64z     M294.912,23.528l11.32-2.64l48.968,20l-19.592,9.28L294.912,23.528z M391.312,68.84c-1.896,0.952-3.336,2.616-4.008,4.624    l-22.952,68.856l-15.88,7.936l6.376-57.384c0.312-2.768-0.84-5.488-3.032-7.192c-1.44-1.112-3.168-1.688-4.928-1.688    c-0.944,0-1.896,0.168-2.808,0.504l-62.64,23.496h-23.456l-9.968-32.496l31.296,15.648c2.2,1.096,4.776,1.128,7,0.072    l148.136-70.16l23.832,14.296L391.312,68.84z" fill="#FFFFFF"/>
	</g>
</g>
<g>
	<g>
		<path d="M456,323.992h-9.632l-50.68-85.672c-0.152-0.256-0.32-0.496-0.496-0.736c-4.512-6.008-11.688-9.592-19.192-9.592H44.496    c-11.032,0-20.608,7.48-23.376,18.592L5.992,324.392C2.576,325.304,0,328.28,0,331.992v72c0,22.056,17.944,40,40,40h18.8    c6.608,18.616,24.344,32,45.2,32s38.592-13.384,45.2-32H216h104h24.8c6.608,18.616,24.344,32,45.2,32s38.592-13.384,45.2-32h4.8    c22.056,0,40-17.944,40-40v-56C480,334.76,469.232,323.992,456,323.992z M328,243.992h48c2.384,0,4.664,1.088,6.176,2.912    l45.6,77.088H328V243.992z M224,243.992h88v80h-88V243.992z M120,243.992h88v80h-88V243.992z M36.728,250.056    c0.896-3.568,4.088-6.064,7.768-6.064H104v80H22.368L36.728,250.056z M104,459.992c-17.648,0-32-14.352-32-32s14.352-32,32-32    s32,14.352,32,32S121.648,459.992,104,459.992z M390,459.992c-17.648,0-32-14.352-32-32s14.352-32,32-32s32,14.352,32,32    S407.648,459.992,390,459.992z M464,403.992c0,13.232-10.768,24-24,24h-2c0-26.472-21.528-48-48-48s-48,21.528-48,48h-14v-72h-16    v72h-88v-72h-16v72h-56c0-26.472-21.528-48-48-48s-48,21.528-48,48H40c-13.232,0-24-10.768-24-24v-64h425.808H456    c4.408,0,8,3.584,8,8V403.992z" fill="#FFFFFF"/>
	</g>
</g>
<g>
	<g>
		<path d="M156.816,104.88c-5.856,3.216-10.856,7.88-14.472,13.488l13.456,8.656c2.168-3.376,5.176-6.176,8.704-8.112    L156.816,104.88z" fill="#FFFFFF"/>
	</g>
</g>
<g>
	<g>
		<rect x="176" y="99.992" width="16" height="16" fill="#FFFFFF"/>
	</g>
</g>
<g>
	<g>
		<path d="M253.992,166.504l-5.6,14.984c3.744,1.4,7.112,3.744,9.752,6.792l12.088-10.488    C265.84,172.744,260.224,168.832,253.992,166.504z" fill="#FFFFFF"/>
	</g>
</g>
<g>
	<g>
		<path d="M279.096,195.504l-15.64,3.376c0.36,1.664,0.544,3.384,0.544,5.112v9.152h16v-9.152    C280,201.136,279.696,198.28,279.096,195.504z" fill="#FFFFFF"/>
	</g>
</g>
<g>
	<g>
		<rect x="219.432" y="163.992" width="16" height="16" fill="#FFFFFF"/>
	</g>
</g>
<g>
	<g>
		<rect x="208" y="99.992" width="16" height="16" fill="#FFFFFF"/>
	</g>
</g>
<g>
	<g>
		<rect x="187.432" y="163.992" width="16" height="16" fill="#FFFFFF"/>
	</g>
</g>
<g>
	<g>
		<path d="M152,139.992c0-0.576,0.016-1.152,0.064-1.712l-15.96-1.16c-0.072,0.96-0.104,1.904-0.104,2.872    c0,5.8,1.216,11.392,3.616,16.624l14.544-6.656C152.728,146.824,152,143.472,152,139.992z" fill="#FFFFFF"/>
	</g>
</g>
<g>
	<g>
		<path d="M161.632,159.216l-9.6,12.8c5.36,4.016,11.688,6.64,18.304,7.568l2.232-15.84    C168.624,163.192,164.84,161.616,161.632,159.216z" fill="#FFFFFF"/>
	</g>
</g>
<g>
</g>
<g>
</g>
<g>
</g>
<g>
</g>
<g>
</g>
<g>
</g>
<g>
</g>
<g>
</g>
<g>
</g>
<g>
</g>
<g>
</g>
<g>
</g>
<g>
</g>
<g>
</g>
<g>
</g>
</svg>
